<svg xmlns="http://www.w3.org/2000/svg" xmlns:xlink="http://www.w3.org/1999/xlink" width="458.76" height="460.24">
  <defs>
    <linearGradient id="b">
      <stop offset="0" stop-color="#c79691"/>
      <stop offset="1" stop-color="#af4336"/>
    </linearGradient>
    <linearGradient id="c">
      <stop offset="0" stop-color="#7b1407"/>
      <stop offset="1" stop-color="#d92510"/>
    </linearGradient>
    <linearGradient id="a">
      <stop offset="0" stop-color="#d6270f"/>
      <stop offset="1" stop-color="#d6270f" stop-opacity="0"/>
    </linearGradient>
    <linearGradient xlink:href="#a" id="e" x1="3.63" y1="764.34" x2="462.39" y2="764.34" gradientUnits="userSpaceOnUse"/>
    <linearGradient xlink:href="#b" id="f" gradientUnits="userSpaceOnUse" x1="232.65" y1="558.84" x2="228.82" y2="701.39" gradientTransform="translate(-2 -8)"/>
    <linearGradient xlink:href="#c" id="d" x1="228.61" y1="541.5" x2="233.62" y2="981.43" gradientUnits="userSpaceOnUse"/>
  </defs>
  <g transform="translate(-3.63 -534.22)">
    <circle cx="231.11" cy="761.97" r="222.98" fill="url(#d)" stroke="#000" stroke-width="4" stroke-linecap="round" stroke-linejoin="round"/>
    <path d="M230.65 550.84a228.2 228.2 0 0 0-69.07 10.9c-46.36 14.99-85.24 52.45-95.64 92.17-12.3 46.72 48.12 49.05 168.72 41.42 38.04-2.4 84.48-17.4 126.92-14.1 15.16 1.18 33.64 16.47 45.64 6.85 5.07-4.07 4.57-13.22 1.36-19.45-23.85-45.48-55.34-88.99-110.5-107.36-21.11-7.03-44.14-10.5-67.43-10.43z" fill="url(#f)" stroke="#670000"/>
    <text y="810.5" x="93.09" style="line-height:1.25" font-weight="400" font-size="133.33" font-family="sans-serif" letter-spacing="0" word-spacing="0">
      <tspan y="810.5" x="93.09" fill="#fff">REC</tspan>
    </text>
  </g>
</svg>
