<svg xmlns="http://www.w3.org/2000/svg" width="152" height="152">
  <path fill="#fff" d="M37.977397 130.92863c-11.644465-6.64927-24.129042-12.12741-34.7822409-20.33828-3.700054-9.00901 9.7862939-2.48515 13.2791749.0282 20.146973 10.27682 39.830883 21.46869 60.169736 31.35882 23.612533-11.4351 46.274903-24.77252 69.913173-36.15613 9.75628-.46828.70655 8.76892-3.81014 9.92136-20.76512 11.83213-41.78357 23.32182-63.519197 33.28151-7.90314 1.46302-15.104823-5.73337-22.480386-8.28784-6.295263-3.19472-12.548458-6.47202-18.77012-9.80767zm2.66667-17.08998c-12.261816-6.73231-24.907845-12.87756-36.7897318-20.226861-5.5478794-6.304745 2.8085189-8.009975 6.9447678-3.929618 22.318981 10.474939 43.545932 23.132339 65.844964 33.628569C100.918 111.98202 123.79439 97.77266 148.40103 87.131051c7.77542 2.782696-2.65587 10.117948-7.07997 11.458034-20.94864 11.255395-41.981836 22.427665-63.616377 32.313175-7.937926-.70099-15.154722-6.47643-22.615927-9.53203-4.838504-2.4649-9.652074-4.97864-14.444689-7.53158zm-3-20.162138C26.142984 87.186368 13.858335 81.833507 3.2270675 73.940254c-4.3222896-9.067077 8.4992615-2.944182 12.1694465-.605712 20.647043 9.979019 40.423495 21.711957 61.247553 31.309528 23.971143-11.01341 46.511543-24.972813 70.661553-35.63262 8.88494-.288338-.14899 8.765314-4.43901 9.786226-20.88821 11.650102-41.95434 23.080294-63.737991 32.978974-7.918385 1.42775-15.147346-5.75766-22.555205-8.298-6.346453-3.19591-12.652838-6.47109-18.929347-9.802138zm2.10728-17.470004C27.999798 69.663099 16.039819 63.42607 4.7513473 56.104083c-4.5264358-4.765947-3.7491228-14.360039 2.995152-16.781682C29.884407 26.704686 52.342235 14.559917 75.397182 3.6995032c7.988745.8565869 15.254647 6.8389778 22.81229 9.9589508 17.040398 9.032481 34.389678 17.619022 50.712128 27.90344 4.73751 5.192888 2.34769 14.759957-4.33502 17.160396-20.41841 11.781707-41.00025 23.401543-62.393143 33.332534-7.723933 4.63897-15.305425-2.519886-22.356842-5.218554-6.755292-3.427994-13.432219-7.008094-20.085248-10.629762zm70.892723-7.48578c10.71833-6.042867 22.01303-11.313384 31.81843-18.799292-1.258-6.477013-11.78082-8.803118-17.13319-12.878236-16.12609-8.591333-32.032783-17.75501-48.784013-25.0658-17.783542 7.856352-34.704923 17.596979-51.803947 26.839503-3.796965 3.485531-15.5613248 5.907978-13.286391 11.706589C26.180702 60.665427 42.395371 68.432707 58.10708 76.915475c6.794691 2.370961 13.409984 9.194586 20.574951 8.229255 10.839381-5.101905 21.389559-10.795982 31.962039-16.424002z"/>
</svg>
