<?xml version="1.0" encoding="UTF-8" standalone="no"?>
<!-- Created with Inkscape (http://www.inkscape.org/) -->

<svg
   xmlns:dc="http://purl.org/dc/elements/1.1/"
   xmlns:cc="http://creativecommons.org/ns#"
   xmlns:rdf="http://www.w3.org/1999/02/22-rdf-syntax-ns#"
   xmlns:svg="http://www.w3.org/2000/svg"
   xmlns="http://www.w3.org/2000/svg"
   xmlns:sodipodi="http://sodipodi.sourceforge.net/DTD/sodipodi-0.dtd"
   xmlns:inkscape="http://www.inkscape.org/namespaces/inkscape"
   version="1.1"
   id="svg2"
   width="152"
   height="152"
   viewBox="0 0 152 152"
   sodipodi:docname="icon-components.svg"
   inkscape:version="0.92.3 (2405546, 2018-03-11)">
  <metadata
     id="metadata8">
    <rdf:RDF>
      <cc:Work
         rdf:about="">
        <dc:format>image/svg+xml</dc:format>
        <dc:type
           rdf:resource="http://purl.org/dc/dcmitype/StillImage" />
        <dc:title></dc:title>
      </cc:Work>
    </rdf:RDF>
  </metadata>
  <defs
     id="defs6" />
  <sodipodi:namedview
     pagecolor="#ffffff"
     bordercolor="#666666"
     borderopacity="1"
     objecttolerance="10"
     gridtolerance="10"
     guidetolerance="10"
     inkscape:pageopacity="0"
     inkscape:pageshadow="2"
     inkscape:window-width="1920"
     inkscape:window-height="1026"
     id="namedview4"
     showgrid="false"
     inkscape:zoom="1.5526316"
     inkscape:cx="-1.9322034"
     inkscape:cy="76"
     inkscape:window-x="1920"
     inkscape:window-y="0"
     inkscape:window-maximized="1"
     inkscape:current-layer="svg2" />
  <path
     style="fill:#ffffff;stroke-width:1.33333337"
     d="M 37.977397,130.92863 C 9.3756773,115.58794 2.5628973,111.40585 2.2179973,108.9774 c -0.39789,-2.80162 0.71943,-3.58303 4.5129,-3.15613 0.7811,0.0879 16.5993597,8.25899 35.1516997,18.15798 18.55233,9.89898 34.195,17.99815 34.76147,17.99815 0.56647,0 16.20914,-8.09917 34.761473,-17.99815 18.55234,-9.89899 34.37061,-18.07008 35.1517,-18.15798 3.79347,-0.4269 4.91079,0.35451 4.5129,3.15613 -0.3449,2.42845 -7.15768,6.61054 -35.7594,21.95123 -19.433343,10.42317 -36.833343,18.95123 -38.666673,18.95123 -1.83333,0 -19.23333,-8.52806 -38.66667,-18.95123 z m 2.66667,-17.08998 C 22.677397,104.26617 6.6273973,95.567535 4.9773973,94.508362 c -3.33151,-2.138578 -4.00509001,-6.526632 -1.16892,-7.614975 1.00709,-0.386459 17.5027197,7.649348 36.6569597,17.857353 19.15423,10.208 35.43461,18.56 36.17863,18.56 0.74402,0 17.0244,-8.352 36.178633,-18.56 19.15424,-10.208005 35.64986,-18.243812 36.65696,-17.857353 2.28746,0.87778 2.38701,4.975972 0.16441,6.767797 -4.85715,3.915744 -70.450733,37.644476 -73.152863,37.615766 -1.74926,-0.0186 -17.88047,-7.86582 -35.84714,-17.4383 z m -3,-20.162138 C 6.9009773,77.354235 1.9773973,74.319416 1.9773973,71.692126 c 0,-2.193848 0.77374,-3.048059 2.7609,-3.048059 1.5185,0 17.9651697,8.1 36.5481597,18 18.58299,9.9 34.49391,18.000003 35.35761,18.000003 0.8637,0 16.77462,-8.100003 35.357613,-18.000003 18.58299,-9.9 35.02966,-18 36.54815,-18 1.98315,0 2.76091,0.854383 2.76091,3.032892 0,2.608081 -5.00855,5.689573 -35.75804,22 -19.666923,10.431911 -37.216923,18.960081 -39.000003,18.951501 -1.78308,-0.009 -19.29196,-8.53696 -38.90863,-18.951948 z m 2.10728,-17.470004 C 22.027017,66.547166 6.2770173,57.501075 4.7513473,56.104083 1.1982573,52.850674 0.98062729,44.626104 4.3665373,41.561894 8.4711173,37.8473 73.729727,3.3107345 76.644067,3.3107345 c 2.91434,0 68.172953,34.5365655 72.277533,38.2511595 3.4952,3.163116 3.15972,11.241852 -0.61086,14.710201 -1.65,1.517743 -17.5957,10.622331 -35.43488,20.232419 -23.098423,12.443273 -33.653013,17.442885 -36.666673,17.368661 -2.77331,-0.06831 -15.3384,-6.157068 -36.45784,-17.666667 z m 70.892723,-7.48578 C 132.6497,56.894934 142.76366,50.760663 143.02698,49.08001 143.33206,47.132816 136.83128,43.113636 111.0449,29.306725 93.244157,19.775597 77.719337,11.9774 76.545297,11.9774 c -1.17403,0 -16.65095,7.800001 -34.39315,17.333335 -25.7233,13.821777 -32.1825297,17.830719 -31.88332,19.788477 0.25973,1.699387 10.22569,7.745719 32.37524,19.642022 17.6,9.452781 32.9,17.184485 34,17.181562 1.1,-0.0029 16.4,-7.743853 34.000003,-17.202068 z"
     id="path4749"
     inkscape:connector-curvature="0" />
</svg>
