<svg xmlns="http://www.w3.org/2000/svg" width="185.505" height="228.103"><defs><clipPath id="a"><path d="M0 238h214V0H0z"/></clipPath></defs><g clip-path="url(#a)" transform="matrix(1.33333 0 0 -1.33333 -34.697 259.352)"><path d="M66.334 160.92l5.24-3.48a92.343 92.343 0 0 1-11.28-27.8l-6.181 1.2a98.688 98.688 0 0 0 12.22 30.08" fill="#fff"/><path d="M66.334 160.92l5.24-3.48a92.343 92.343 0 0 1-11.28-27.8l-6.181 1.2a98.688 98.688 0 0 0 12.22 30.08z" fill="none" stroke="#231f20" stroke-miterlimit="10"/><path d="M71.684 60.29l-5.23-3.5a98.58 98.58 0 0 0-12.271 29.979L60.353 88a92.486 92.486 0 0 1 11.33-27.71" fill="#fff"/><path d="M71.684 60.29l-5.23-3.5a98.58 98.58 0 0 0-12.271 29.979L60.353 88a92.486 92.486 0 0 1 11.33-27.71z" fill="none" stroke="#231f20" stroke-miterlimit="10"/><path d="M46.904 91.88l-6.19-1.2c-.98 5.94-1.49 12.05-1.49 18.27 0 6.19.5 12.27 1.48 18.19l6.19-1.19c-.9-5.53-1.371-11.21-1.371-17 0-5.81.47-11.51 1.38-17.07" fill="#fff"/><path d="M46.904 91.88l-6.19-1.2c-.98 5.94-1.49 12.05-1.49 18.27 0 6.19.5 12.27 1.48 18.19l6.19-1.19c-.9-5.53-1.371-11.21-1.371-17 0-5.81.47-11.51 1.38-17.07z" fill="none" stroke="#231f20" stroke-miterlimit="10"/><path d="M34.463 89.47l-6.23-1.2a124.652 124.652 0 0 0-1.71 20.68c0 7.01.58 13.89 1.69 20.59l6.24-1.2a117.995 117.995 0 0 1-1.59-19.39c0-6.64.55-13.15 1.6-19.48" fill="#fff"/><path d="M34.463 89.47l-6.23-1.2a124.652 124.652 0 0 0-1.71 20.68c0 7.01.58 13.89 1.69 20.59l6.24-1.2a117.995 117.995 0 0 1-1.59-19.39c0-6.64.55-13.15 1.6-19.48z" fill="none" stroke="#231f20" stroke-miterlimit="10"/><path d="M81.834 67.09l-5.02-3.36a86.423 86.423 0 0 0-10.41 25.48l5.93 1.18a80.199 80.199 0 0 1 9.5-23.3" fill="#fff"/><path d="M81.834 67.09l-5.02-3.36a86.423 86.423 0 0 0-10.41 25.48l5.93 1.18a80.199 80.199 0 0 1 9.5-23.3z" fill="none" stroke="#231f20" stroke-miterlimit="10"/><path d="M76.713 154.03l5.04-3.35a80.417 80.417 0 0 1-9.48-23.39l-5.92 1.16a86.532 86.532 0 0 0 10.36 25.58" fill="#fff"/><path d="M76.713 154.03l5.04-3.35a80.417 80.417 0 0 1-9.48-23.39l-5.92 1.16a86.532 86.532 0 0 0 10.36 25.58z" fill="none" stroke="#231f20" stroke-miterlimit="10"/><path d="M61.324 53.36l-5.24-3.51a110.879 110.879 0 0 0-14.141 34.48l6.19 1.24c2.6-11.57 7.12-22.42 13.19-32.21" fill="#fff"/><path d="M61.324 53.36l-5.24-3.51a110.879 110.879 0 0 0-14.141 34.48l6.19 1.24c2.6-11.57 7.12-22.42 13.19-32.21z" fill="none" stroke="#231f20" stroke-miterlimit="10"/><path d="M55.933 167.82l5.26-3.49c-6.06-9.82-10.56-20.7-13.129-32.3l-6.19 1.21c2.74 12.43 7.55 24.08 14.06 34.58" fill="#fff"/><path d="M55.933 167.82l5.26-3.49c-6.06-9.82-10.56-20.7-13.129-32.3l-6.19 1.21c2.74 12.43 7.55 24.08 14.06 34.58z" fill="none" stroke="#231f20" stroke-miterlimit="10"/><path d="M59.144 94.25l-6.181-1.2a99.27 99.27 0 0 0-1.27 15.9c0 5.39.43 10.68 1.261 15.84l6.179-1.19a93.127 93.127 0 0 1-1.149-14.65c0-5 .389-9.91 1.16-14.7" fill="#fff"/><path d="M59.144 94.25l-6.181-1.2a99.27 99.27 0 0 0-1.27 15.9c0 5.39.43 10.68 1.261 15.84l6.179-1.19a93.127 93.127 0 0 1-1.149-14.65c0-5 .389-9.91 1.16-14.7z" fill="none" stroke="#231f20" stroke-miterlimit="10"/><path d="M71.133 96.57l-5.93-1.15a87.362 87.362 0 0 0-1.05 13.53c0 4.59.35 9.09 1.04 13.49l5.93-1.14a82.559 82.559 0 0 1-.93-12.35c0-4.21.32-8.34.94-12.38" fill="#fff"/><path d="M71.133 96.57l-5.93-1.15a87.362 87.362 0 0 0-1.05 13.53c0 4.59.35 9.09 1.04 13.49l5.93-1.14a82.559 82.559 0 0 1-.93-12.35c0-4.21.32-8.34.94-12.38z" fill="none" stroke="#231f20" stroke-miterlimit="10"/><path d="M77.353 120.11l6.19-1.19a68.737 68.737 0 0 1 0-19.95l-6.19-1.19a74.689 74.689 0 0 0-.83 11.17c0 3.79.28 7.52.83 11.16" fill="#fff"/><path d="M77.353 120.11l6.19-1.19a68.737 68.737 0 0 1 0-19.95l-6.19-1.19a74.689 74.689 0 0 0-.83 11.17c0 3.79.28 7.52.83 11.16z" fill="none" stroke="#231f20" stroke-miterlimit="10"/><path d="M93.154 189.78l3.46-5.28a93.082 93.082 0 0 1-21.45-21.62l-5.18 3.59a99.903 99.903 0 0 0 23.17 23.31" fill="#fff"/><path d="M93.154 189.78l3.46-5.28a93.082 93.082 0 0 1-21.45-21.62l-5.18 3.59a99.903 99.903 0 0 0 23.17 23.31z" fill="none" stroke="#231f20" stroke-miterlimit="10"/><path d="M110.164 54.25l-3.45-5.28a75.148 75.148 0 0 0-16 16.19l5.26 3.47a68.82 68.82 0 0 1 14.19-14.38" fill="#fff"/><path d="M110.164 54.25l-3.45-5.28a75.148 75.148 0 0 0-16 16.19l5.26 3.47a68.82 68.82 0 0 1 14.19-14.38z" fill="none" stroke="#231f20" stroke-miterlimit="10"/><path d="M132.193 193.91l.9-5.98a80.09 80.09 0 0 1-24.41-10.02l-3.21 5.13a86.278 86.278 0 0 0 26.72 10.87" fill="#fff"/><path d="M132.193 193.91l.9-5.98a80.09 80.09 0 0 1-24.41-10.02l-3.21 5.13a86.278 86.278 0 0 0 26.72 10.87z" fill="none" stroke="#231f20" stroke-miterlimit="10"/><path d="M162.844 41.58l1.68-6.1a75.195 75.195 0 0 0-13.33-1.19c-3.51 0-6.96.24-10.34.72l.49 6.28c3.209-.47 6.5-.71 9.85-.71 3.97 0 7.87.34 11.65 1" fill="#fff"/><path d="M162.844 41.58l1.68-6.1a75.195 75.195 0 0 0-13.33-1.19c-3.51 0-6.96.24-10.34.72l.49 6.28c3.209-.47 6.5-.71 9.85-.71 3.97 0 7.87.34 11.65 1z" fill="none" stroke="#231f20" stroke-miterlimit="10"/><path d="M134.043 181.64l.941-6.25a67.501 67.501 0 0 1-19.621-8.19l-3.33 5.34a74.19 74.19 0 0 0 22.01 9.1" fill="#fff"/><path d="M134.043 181.64l.941-6.25a67.501 67.501 0 0 1-19.621-8.19l-3.33 5.34a74.19 74.19 0 0 0 22.01 9.1z" fill="none" stroke="#231f20" stroke-miterlimit="10"/><path d="M106.783 168.98l3.451-5.27a68.407 68.407 0 0 1-14.65-14.97l-5.17 3.59a74.946 74.946 0 0 0 16.37 16.65" fill="#fff"/><path d="M106.783 168.98l3.451-5.27a68.407 68.407 0 0 1-14.65-14.97l-5.17 3.59a74.946 74.946 0 0 0 16.37 16.65z" fill="none" stroke="#231f20" stroke-miterlimit="10"/><path d="M92.344 74.12l-5.23-3.5a73.818 73.818 0 0 0-8.571 21.01l6.18 1.24a67.773 67.773 0 0 1 7.62-18.75" fill="#fff"/><path d="M92.344 74.12l-5.23-3.5a73.818 73.818 0 0 0-8.571 21.01l6.18 1.24a67.773 67.773 0 0 1 7.62-18.75z" fill="none" stroke="#231f20" stroke-miterlimit="10"/><path d="M135.084 42.49l-1.041-6.22a74.12 74.12 0 0 0-22.129 9.18l3.35 5.32a67.718 67.718 0 0 1 19.82-8.28" fill="#fff"/><path d="M135.084 42.49l-1.041-6.22a74.12 74.12 0 0 0-22.129 9.18l3.35 5.32a67.718 67.718 0 0 1 19.82-8.28z" fill="none" stroke="#231f20" stroke-miterlimit="10"/><path d="M99.984 179.35l3.318-5.07a81.039 81.039 0 0 1-18.099-18.35l-4.969 3.44a87.456 87.456 0 0 0 19.75 19.98" fill="#fff"/><path d="M99.984 179.35l3.318-5.07a81.039 81.039 0 0 1-18.099-18.35l-4.969 3.44a87.456 87.456 0 0 0 19.75 19.98z" fill="none" stroke="#231f20" stroke-miterlimit="10"/><path d="M87.043 147.18l5.25-3.49a67.84 67.84 0 0 1-7.619-18.82l-6.17 1.21a74.163 74.163 0 0 0 8.539 21.1" fill="#fff"/><path d="M87.043 147.18l5.25-3.49a67.84 67.84 0 0 1-7.619-18.82l-6.17 1.21a74.163 74.163 0 0 0 8.539 21.1z" fill="none" stroke="#231f20" stroke-miterlimit="10"/><path d="M164.463 182.44l-.79-6.25a68.419 68.419 0 0 1-12.48 1.14c-3.24 0-6.42-.23-9.54-.67l-.94 6.22c3.42.49 6.92.74 10.48.74 4.53 0 8.96-.4 13.27-1.18" fill="#fff"/><path d="M164.463 182.44l-.79-6.25a68.419 68.419 0 0 1-12.48 1.14c-3.24 0-6.42-.23-9.54-.67l-.94 6.22c3.42.49 6.92.74 10.48.74 4.53 0 8.96-.4 13.27-1.18z" fill="none" stroke="#231f20" stroke-miterlimit="10"/><path d="M96.574 33.43l-3.44-5.28a99.638 99.638 0 0 0-23.18 23.35l5.26 3.46a93.47 93.47 0 0 1 21.36-21.53" fill="#fff"/><path d="M96.574 33.43l-3.44-5.28a99.638 99.638 0 0 0-23.18 23.35l5.26 3.46a93.47 93.47 0 0 1 21.36-21.53z" fill="none" stroke="#231f20" stroke-miterlimit="10"/><path d="M132.994 30l-1-5.96a86.125 86.125 0 0 0-26.68 10.93l3.22 5.12A80.504 80.504 0 0 1 132.993 30" fill="#fff"/><path d="M132.994 30l-1-5.96a86.125 86.125 0 0 0-26.68 10.93l3.22 5.12A80.504 80.504 0 0 1 132.993 30z" fill="none" stroke="#231f20" stroke-miterlimit="10"/><path d="M103.254 43.66l-3.311-5.07a87.84 87.84 0 0 0-19.58 19.76l5.06 3.33a81.024 81.024 0 0 1 17.83-18.02" fill="#fff"/><path d="M103.254 43.66l-3.311-5.07a87.84 87.84 0 0 0-19.58 19.76l5.06 3.33a81.024 81.024 0 0 1 17.83-18.02z" fill="none" stroke="#231f20" stroke-miterlimit="10"/></g></svg>